PathFileType	4	(X/Y/Z)	G:\マイドライブ\biomec\experimentalData\240725\CJ3.trc
DataRate	CameraRate	NumFrames	NumMarkers	Units	OrigDataRate	OrigDataStartFrame	OrigNumFrames
200.00	200.00	      4	52	mm	200.00	626	      1667
Frame#	Time	handR			wrRI			wrRO			elbRI			elbRO			shRF			shRU			shRB			handL			wrLI			wrLO			elbLI			elbLO			shLF			shLU			shLB			toeR			baRI			baRO			heelR			anRI			anRO			knRI			knRO			troR			toeL			baLI			baLO			heelL			anLI			anLO			knLI			knLO			troL			head			earR			earL			clav			c7			ribR			ribL			xiph			ASISR			ASISL			PSISR			PSISL			t8			t11			L1			L3			LS			COX			
		X1	Y1	Z1	X2	Y2	Z2	X3	Y3	Z3	X4	Y4	Z4	X5	Y5	Z5	X6	Y6	Z6	X7	Y7	Z7	X8	Y8	Z8	X9	Y9	Z9	X10	Y10	Z10	X11	Y11	Z11	X12	Y12	Z12	X13	Y13	Z13	X14	Y14	Z14	X15	Y15	Z15	X16	Y16	Z16	X17	Y17	Z17	X18	Y18	Z18	X19	Y19	Z19	X20	Y20	Z20	X21	Y21	Z21	X22	Y22	Z22	X23	Y23	Z23	X24	Y24	Z24	X25	Y25	Z25	X26	Y26	Z26	X27	Y27	Z27	X28	Y28	Z28	X29	Y29	Z29	X30	Y30	Z30	X31	Y31	Z31	X32	Y32	Z32	X33	Y33	Z33	X34	Y34	Z34	X35	Y35	Z35	X36	Y36	Z36	X37	Y37	Z37	X38	Y38	Z38	X39	Y39	Z39	X40	Y40	Z40	X41	Y41	Z41	X42	Y42	Z42	X43	Y43	Z43	X44	Y44	Z44	X45	Y45	Z45	X46	Y46	Z46	X47	Y47	Z47	X48	Y48	Z48	X49	Y49	Z49	X50	Y50	Z50	X51	Y51	Z51	X52	Y52	Z52	

626	3.125	615.17267	749.67029	1049.86182	579.48608	680.19305	1032.77332	536.46790	722.69354	1074.04797	432.30515	582.88007	1209.05188	496.81436	535.38251	1220.99915	624.09436	742.25037	1418.70386	571.53381	713.78223	1450.68433	515.38776	715.79626	1420.16125	641.53857	1030.80212	1055.36658	607.06049	1104.42700	1030.46729	566.20056	1064.93396	1082.07959	476.92978	1235.20068	1185.77332	549.73438	1276.08496	1191.25232	634.17761	1065.05493	1405.74231	585.57886	1101.87976	1433.46301	522.27075	1089.14099	1391.12109	694.32330	730.08777	47.77484	613.22711	779.66095	35.20424	586.06836	655.75867	40.94221	407.40472	752.62250	41.46156	496.51959	788.25415	112.72895	472.32516	697.45337	104.98979	506.88226	815.87543	469.74258	508.14462	710.18842	479.54300	548.30212	722.73511	876.51587	713.52606	1046.66687	51.75325	641.19928	999.67169	51.65771	617.59839	1113.18201	46.99860	427.99597	1053.89685	39.13151	517.89050	1004.07068	129.89912	497.59784	1094.54675	108.45544	548.85468	974.59161	479.16141	561.05676	1079.15637	488.71613	576.81384	1064.19189	875.17242	598.31952	922.31262	1717.55103	664.66858	832.86426	1564.95483	667.95068	991.91870	1556.43945	654.29437	905.64209	1402.49426	533.40149	916.13422	1483.02002	624.22754	786.65088	1100.46362	636.00714	1004.99756	1093.04053	682.71545	897.61688	1244.95044	629.01593	782.43713	960.31067	642.90796	1001.68036	973.77386	465.90103	842.38629	1012.87085	476.49588	962.29004	1017.95044	464.15729	911.71454	1269.75183	475.49579	905.93335	1146.63904	482.78241	906.29309	1089.41809	476.37457	902.61493	1043.92322	459.77396	904.22357	1008.57196	422.13828	910.24982	910.75977	
627	3.130	615.32147	749.40594	1049.41492	579.26825	680.08569	1032.40710	536.57727	722.69763	1073.92139	431.83383	582.84027	1208.50537	496.42252	535.26581	1220.62585	623.32349	741.86865	1418.65686	570.45239	713.54596	1450.64905	514.58417	715.72406	1419.93091	641.59473	1030.16919	1054.75098	606.02258	1104.30957	1029.27539	566.54645	1064.90186	1082.18030	477.27274	1235.15918	1186.03186	550.22260	1275.97974	1191.50598	634.40509	1064.62354	1406.00269	585.73450	1101.69116	1433.68152	522.45947	1089.05249	1391.17749	694.36420	730.12354	47.74803	613.25604	779.72089	35.19064	586.07587	655.81207	41.00597	407.43088	752.69617	41.52264	496.55707	788.30017	112.77534	472.38684	697.54065	105.12074	507.17465	815.78430	469.90903	508.40701	710.14404	479.72113	548.13959	722.46082	876.72491	713.44708	1046.70374	51.80990	641.22571	999.73798	51.85497	617.56616	1113.31665	46.89285	427.97144	1054.02136	38.94251	517.58154	1004.57764	129.81047	497.39526	1094.95703	108.18169	547.55334	974.98688	478.76920	560.25000	1079.43127	488.42200	577.48389	1063.89478	874.66827	597.64679	921.41870	1717.40088	664.05664	832.13538	1564.82141	667.61401	991.08746	1556.64819	654.14673	905.08710	1402.65540	532.81891	916.03510	1483.00208	624.17407	786.36407	1100.53235	636.34674	1004.88177	1093.12048	682.63849	897.22650	1245.11963	628.93628	782.19781	960.40613	643.37238	1001.39050	973.54663	465.95404	842.69110	1012.88190	476.88766	962.46014	1017.58246	464.07971	912.03790	1269.54346	475.64349	906.40515	1146.42944	482.98257	906.74585	1089.24817	476.62265	903.04565	1043.76135	459.96201	904.54077	1008.47565	422.39578	910.42621	910.70715	
628	3.135	615.48218	749.19952	1049.05493	579.06836	680.01929	1032.09314	536.66559	722.73657	1073.82483	431.32062	582.76385	1208.01477	495.97153	535.17798	1220.21582	622.79169	741.63129	1418.65881	569.48755	713.32678	1450.55627	513.97736	715.61261	1419.67859	642.57825	1030.78906	1055.11780	606.47754	1104.39160	1029.32520	566.97156	1064.92993	1082.24609	477.68646	1235.16370	1186.34753	550.83148	1275.87195	1191.80298	634.59686	1064.31335	1406.21826	585.87219	1101.51819	1433.86902	522.62701	1088.95532	1391.24353	694.36487	730.13599	47.74529	613.25232	779.75256	35.16475	586.07593	655.86749	41.08243	407.43723	752.73743	41.61328	496.59485	788.35406	112.82194	472.45880	697.57440	105.18083	507.89746	815.88953	470.15710	508.67471	710.14178	479.83820	547.97760	722.23303	876.98401	713.41217	1046.71533	51.84530	641.23999	999.82953	51.98720	617.54199	1113.40295	46.83475	427.90427	1054.08276	38.80760	517.43066	1004.94861	129.72122	497.29422	1095.22961	108.05690	546.24048	975.53192	478.26401	559.38110	1079.70056	488.06638	577.98633	1063.67029	874.18640	596.59589	920.32361	1717.28821	663.58600	831.39252	1564.74231	667.28333	990.51770	1556.88257	653.99890	904.52533	1402.81494	532.47070	915.80493	1482.79285	624.15424	786.15814	1100.61035	636.93121	1004.76282	1093.21655	682.64679	896.84735	1245.28040	628.86414	781.95422	960.53296	643.83173	1001.15527	973.33179	466.02341	843.03815	1012.90009	477.16559	962.74902	1017.09131	463.99234	912.42432	1269.34326	475.71295	906.86481	1146.21399	483.20026	907.27979	1088.99133	476.88724	903.54608	1043.53333	460.18060	904.99548	1008.35046	422.68381	910.60144	910.61139	
629	3.140	615.69952	748.98633	1048.79102	578.77069	680.01196	1031.72559	536.95239	723.07727	1074.26721	431.60968	582.82617	1207.76855	495.45462	535.04279	1219.76819	622.17218	741.27875	1418.73718	568.83588	713.16180	1450.41565	513.27850	715.68158	1419.31934	642.49493	1030.22839	1054.60864	606.80322	1104.51660	1029.32373	567.42969	1064.93213	1082.24280	478.13431	1235.21106	1186.72205	551.37543	1275.89771	1192.09033	634.77332	1064.01221	1406.38464	586.04584	1101.30469	1434.06409	522.89368	1088.87231	1391.25293	694.36530	730.14893	47.77058	613.26971	779.75317	35.16621	586.07959	655.90039	41.11929	407.45630	752.76288	41.61134	496.62146	788.37360	112.85194	472.48410	697.57489	105.23309	507.82013	815.55560	470.19885	508.97092	710.08594	479.96783	547.80695	722.04987	877.27972	713.38867	1046.72717	51.88394	641.28790	999.85754	52.12999	617.53253	1113.45276	46.77601	427.84537	1054.14087	38.66965	517.27155	1005.28217	129.59680	497.19189	1095.41528	107.91927	544.94971	975.85870	477.80588	558.19458	1080.10767	487.56369	578.53223	1063.47986	873.68109	595.77826	919.43091	1717.15759	663.15515	830.69775	1564.63550	666.99890	989.84998	1557.17627	653.90826	904.15692	1402.88599	532.14410	915.56915	1482.57751	624.17303	785.95471	1100.71875	637.41913	1004.66193	1093.25256	682.65228	896.45508	1245.40845	628.77429	781.71063	960.64807	644.58234	1000.83795	973.38440	466.05621	843.39569	1012.84314	477.45712	962.99457	1016.72839	463.94226	912.77820	1269.07837	475.73901	907.30103	1145.95862	483.38821	907.75049	1088.68970	477.10123	903.89362	1043.32019	460.42084	905.47144	1008.17438	422.92975	910.74017	910.47858	
